<svg 
    width="24" 
    height="24" 
    viewBox="0 0 24 24" 
    fill="none" 
    xmlns="http://www.w3.org/2000/svg"
>
  <path 
    d="M3 6H5H21" 
    stroke="Red" 
    strokeWidth="2" 
    strokeLinecap="round" 
    strokeLinejoin="round"
  />
  <path 
    d="M19 6L18.3333 19.6667C18.2893 20.4605 17.6289 21.0833 16.8333 21.0833H7.16667C6.3711 21.0833 5.7107 20.4605 5.66667 19.6667L5 6" 
    stroke="Red" 
    strokeWidth="2" 
    strokeLinecap="round" 
    strokeLinejoin="round"
  />
  <path 
    d="M8 6V4C8 3.46957 8.21071 2.96086 8.58579 2.58579C8.96086 2.21071 9.46957 2 10 2H14C14.5304 2 15.0391 2.21071 15.4142 2.58579C15.7893 2.96086 16 3.46957 16 4V6" 
    stroke="Red" 
    strokeWidth="2" 
    strokeLinecap="round" 
    strokeLinejoin="round"
  />
  <path 
    d="M10 11V17" 
    stroke="Red" 
    strokeWidth="2" 
    strokeLinecap="round" 
    strokeLinejoin="round"
  />
  <path 
    d="M14 11V17" 
    stroke="Red" 
    strokeWidth="2" 
    strokeLinecap="round" 
    strokeLinejoin="round"
  />
</svg>
