<svg width="143" height="36" viewBox="0 0 143 36" fill="none" xmlns="http://www.w3.org/2000/svg">
<path d="M19.92 9.248V26H16.56V15.104L12.072 26H9.528L5.016 15.104V26H1.656V9.248H5.472L10.8 21.704L16.128 9.248H19.92ZM24.7779 11.024C24.2819 11.024 23.8659 10.856 23.5299 10.52C23.1939 10.184 23.0259 9.768 23.0259 9.272C23.0259 8.776 23.1939 8.36 23.5299 8.024C23.8659 7.688 24.2819 7.52 24.7779 7.52C25.2579 7.52 25.6659 7.688 26.0019 8.024C26.3379 8.36 26.5059 8.776 26.5059 9.272C26.5059 9.768 26.3379 10.184 26.0019 10.52C25.6659 10.856 25.2579 11.024 24.7779 11.024ZM26.1219 12.776V26H23.3859V12.776H26.1219ZM32.4501 14.696C32.8501 14.024 33.3781 13.504 34.0341 13.136C34.7061 12.752 35.4981 12.56 36.4101 12.56V15.392H35.7141C34.6421 15.392 33.8261 15.664 33.2661 16.208C32.7221 16.752 32.4501 17.696 32.4501 19.04V26H29.7141V12.776H32.4501V14.696ZM42.141 11.96V16.16H47.781V18.824H42.141V23.264H48.501V26H38.781V9.224H48.501V11.96H42.141ZM56.8104 23.552L60.5544 12.776H63.4584L58.4184 26H55.1544L50.1384 12.776H53.0664L56.8104 23.552ZM77.6466 19.064C77.6466 19.56 77.6146 20.008 77.5506 20.408H67.4466C67.5266 21.464 67.9186 22.312 68.6226 22.952C69.3266 23.592 70.1906 23.912 71.2146 23.912C72.6866 23.912 73.7266 23.296 74.3346 22.064H77.2866C76.8866 23.28 76.1586 24.28 75.1026 25.064C74.0626 25.832 72.7666 26.216 71.2146 26.216C69.9506 26.216 68.8146 25.936 67.8066 25.376C66.8146 24.8 66.0306 24 65.4546 22.976C64.8946 21.936 64.6146 20.736 64.6146 19.376C64.6146 18.016 64.8866 16.824 65.4306 15.8C65.9906 14.76 66.7666 13.96 67.7586 13.4C68.7666 12.84 69.9186 12.56 71.2146 12.56C72.4626 12.56 73.5746 12.832 74.5506 13.376C75.5266 13.92 76.2866 14.688 76.8306 15.68C77.3746 16.656 77.6466 17.784 77.6466 19.064ZM74.7906 18.2C74.7746 17.192 74.4146 16.384 73.7106 15.776C73.0066 15.168 72.1346 14.864 71.0946 14.864C70.1506 14.864 69.3426 15.168 68.6706 15.776C67.9986 16.368 67.5986 17.176 67.4706 18.2H74.7906ZM87.0111 12.56C88.0511 12.56 88.9791 12.776 89.7951 13.208C90.6271 13.64 91.2751 14.28 91.7391 15.128C92.2031 15.976 92.4351 17 92.4351 18.2V26H89.7231V18.608C89.7231 17.424 89.4271 16.52 88.8351 15.896C88.2431 15.256 87.4351 14.936 86.4111 14.936C85.3871 14.936 84.5711 15.256 83.9631 15.896C83.3711 16.52 83.0751 17.424 83.0751 18.608V26H80.3391V12.776H83.0751V14.288C83.5231 13.744 84.0911 13.32 84.7791 13.016C85.4831 12.712 86.2271 12.56 87.0111 12.56ZM99.117 15.008V22.328C99.117 22.824 99.229 23.184 99.453 23.408C99.693 23.616 100.093 23.72 100.653 23.72H102.333V26H100.173C98.941 26 97.997 25.712 97.341 25.136C96.685 24.56 96.357 23.624 96.357 22.328V15.008H94.797V12.776H96.357V9.488H99.117V12.776H102.333V15.008H99.117Z" fill="white"/>
<path d="M124.986 9.06641H134.15V26H133.104C130.227 26 128.157 25.4964 126.896 24.4893C125.623 23.471 124.986 21.7887 124.986 19.4424V9.06641ZM113 17.7324C113 16.515 113.16 15.3861 113.481 14.3457C113.802 13.2943 114.3 12.3757 114.976 11.5898C116.437 9.90755 118.528 9.06641 121.251 9.06641H122.529V26H121.666C118.877 26 116.719 25.2363 115.191 23.709C113.73 22.248 113 20.2559 113 17.7324Z" fill="url(#paint0_linear_230_1077)"/>
<g clip-path="url(#clip0_230_1077)">
<path d="M138.842 1.75C137.05 1.75 135.592 3.20801 135.592 5C135.592 6.79199 137.05 8.25 138.842 8.25C140.634 8.25 142.092 6.79199 142.092 5C142.092 3.20801 140.634 1.75 138.842 1.75ZM138.842 2.25C140.363 2.25 141.592 3.47852 141.592 5C141.592 6.52148 140.363 7.75 138.842 7.75C137.32 7.75 136.092 6.52148 136.092 5C136.092 3.47852 137.32 2.25 138.842 2.25ZM137.842 3.5V6.5H138.342V5.5H139.193L139.592 6.5H140.092L139.67 5.4375C140.061 5.30176 140.342 4.9375 140.342 4.5C140.342 3.94727 139.895 3.5 139.342 3.5H137.842ZM138.342 4H139.342C139.64 4 139.842 4.20215 139.842 4.5C139.842 4.79785 139.64 5 139.342 5H138.342V4Z" fill="white"/>
</g>
<defs>
<linearGradient id="paint0_linear_230_1077" x1="113" y1="9.06641" x2="136.449" y2="13.3169" gradientUnits="userSpaceOnUse">
<stop stop-color="#439DFE"/>
<stop offset="1" stop-color="#F687FF"/>
</linearGradient>
<clipPath id="clip0_230_1077">
<rect width="8" height="8" fill="white" transform="translate(134.842 1)"/>
</clipPath>
</defs>
</svg>
