<svg width="19" height="16" viewBox="0 0 19 16" fill="none" xmlns="http://www.w3.org/2000/svg">
<path d="M14.8854 1.56272C15.3859 1.77014 15.8408 2.07416 16.2238 2.4574C16.6071 2.84047 16.9111 3.29529 17.1185 3.79589C17.3259 4.29648 17.4327 4.83304 17.4327 5.3749C17.4327 5.91677 17.3259 6.45333 17.1185 6.95392C16.9111 7.45451 16.6071 7.90934 16.2238 8.2924L15.4288 9.0874L9.59384 14.9224L3.75884 9.0874L2.96384 8.2924C2.19007 7.51864 1.75537 6.46918 1.75537 5.3749C1.75537 4.28063 2.19007 3.23117 2.96384 2.4574C3.73761 1.68364 4.78706 1.24894 5.88134 1.24894C6.97561 1.24894 8.02507 1.68364 8.79884 2.4574L9.59384 3.2524L10.3888 2.4574C10.7719 2.07416 11.2267 1.77014 11.7273 1.56272C12.2279 1.3553 12.7645 1.24854 13.3063 1.24854C13.8482 1.24854 14.3848 1.3553 14.8854 1.56272Z" stroke="white" stroke-width="2" stroke-linecap="round" stroke-linejoin="round"/>
</svg>
