<svg width="17" height="14" viewBox="0 0 17 14" fill="none" xmlns="http://www.w3.org/2000/svg">
<path d="M13.8854 0.562717C14.3859 0.770139 14.8408 1.07416 15.2238 1.4574C15.6071 1.84047 15.9111 2.29529 16.1185 2.79589C16.3259 3.29648 16.4327 3.83304 16.4327 4.3749C16.4327 4.91677 16.3259 5.45333 16.1185 5.95392C15.9111 6.45451 15.6071 6.90934 15.2238 7.2924L14.4288 8.0874L8.59384 13.9224L2.75884 8.0874L1.96384 7.2924C1.19007 6.51864 0.755371 5.46918 0.755371 4.3749C0.755371 3.28063 1.19007 2.23117 1.96384 1.4574C2.73761 0.683635 3.78706 0.248936 4.88134 0.248936C5.97561 0.248936 7.02507 0.683635 7.79884 1.4574L8.59384 2.2524L9.38884 1.4574C9.77191 1.07416 10.2267 0.770139 10.7273 0.562717C11.2279 0.355296 11.7645 0.248535 12.3063 0.248535C12.8482 0.248535 13.3848 0.355296 13.8854 0.562717Z" fill="#F01717"/>
</svg>
