<svg width="370" height="370" viewBox="0 0 370 370" fill="none" xmlns="http://www.w3.org/2000/svg">
<rect width="370" height="370" rx="30" fill="#111010"/>
<path d="M67.12 162.328V207H58.16V177.944L46.192 207H39.408L27.376 177.944V207H18.416V162.328H28.592L42.8 195.544L57.008 162.328H67.12ZM80.0745 167.064C78.7518 167.064 77.6425 166.616 76.7465 165.72C75.8505 164.824 75.4025 163.715 75.4025 162.392C75.4025 161.069 75.8505 159.96 76.7465 159.064C77.6425 158.168 78.7518 157.72 80.0745 157.72C81.3545 157.72 82.4425 158.168 83.3385 159.064C84.2345 159.96 84.6825 161.069 84.6825 162.392C84.6825 163.715 84.2345 164.824 83.3385 165.72C82.4425 166.616 81.3545 167.064 80.0745 167.064ZM83.6585 171.736V207H76.3625V171.736H83.6585ZM100.534 176.856C101.6 175.064 103.008 173.677 104.758 172.696C106.55 171.672 108.662 171.16 111.094 171.16V178.712H109.238C106.379 178.712 104.203 179.437 102.71 180.888C101.259 182.339 100.534 184.856 100.534 188.44V207H93.2375V171.736H100.534V176.856ZM126.376 169.56V180.76H141.416V187.864H126.376V199.704H143.336V207H117.416V162.264H143.336V169.56H126.376ZM165.495 200.472L175.479 171.736H183.222L169.783 207H161.079L147.703 171.736H155.51L165.495 200.472ZM221.058 188.504C221.058 189.827 220.972 191.021 220.802 192.088H193.858C194.071 194.904 195.116 197.165 196.994 198.872C198.871 200.579 201.175 201.432 203.906 201.432C207.831 201.432 210.604 199.789 212.226 196.504H220.097C219.031 199.747 217.09 202.413 214.274 204.504C211.5 206.552 208.044 207.576 203.906 207.576C200.535 207.576 197.506 206.829 194.818 205.336C192.172 203.8 190.082 201.667 188.546 198.936C187.052 196.163 186.306 192.963 186.306 189.336C186.306 185.709 187.031 182.531 188.482 179.8C189.975 177.027 192.044 174.893 194.69 173.4C197.378 171.907 200.45 171.16 203.906 171.16C207.234 171.16 210.199 171.885 212.802 173.336C215.404 174.787 217.431 176.835 218.882 179.48C220.332 182.083 221.058 185.091 221.058 188.504ZM213.442 186.2C213.399 183.512 212.439 181.357 210.562 179.736C208.684 178.115 206.359 177.304 203.586 177.304C201.068 177.304 198.914 178.115 197.122 179.736C195.33 181.315 194.263 183.469 193.922 186.2H213.442ZM246.03 171.16C248.803 171.16 251.278 171.736 253.454 172.888C255.672 174.04 257.4 175.747 258.638 178.008C259.875 180.269 260.494 183 260.494 186.2V207H253.262V187.288C253.262 184.131 252.472 181.72 250.894 180.056C249.315 178.349 247.16 177.496 244.43 177.496C241.699 177.496 239.523 178.349 237.902 180.056C236.323 181.72 235.534 184.131 235.534 187.288V207H228.238V171.736H235.534V175.768C236.728 174.317 238.243 173.187 240.078 172.376C241.955 171.565 243.939 171.16 246.03 171.16ZM278.312 177.688V197.208C278.312 198.531 278.611 199.491 279.208 200.088C279.848 200.643 280.915 200.92 282.408 200.92H286.888V207H281.128C277.843 207 275.325 206.232 273.576 204.696C271.827 203.16 270.952 200.664 270.952 197.208V177.688H266.792V171.736H270.952V162.968H278.312V171.736H286.888V177.688H278.312Z" fill="white"/>
<path d="M324.535 177H341V207H339.121C333.951 207 330.232 206.108 327.965 204.324C325.679 202.52 324.535 199.539 324.535 195.382V177ZM303 192.353C303 190.196 303.288 188.196 303.865 186.353C304.442 184.49 305.336 182.863 306.549 181.471C309.174 178.49 312.932 177 317.824 177H320.121V207H318.57C313.559 207 309.681 205.647 306.937 202.941C304.312 200.353 303 196.824 303 192.353Z" fill="url(#paint0_linear_230_1028)"/>
<path d="M349 163.312C345.864 163.312 343.312 165.864 343.312 169C343.312 172.136 345.864 174.688 349 174.688C352.136 174.688 354.688 172.136 354.688 169C354.688 165.864 352.136 163.312 349 163.312ZM349 164.188C351.663 164.188 353.812 166.337 353.812 169C353.812 171.663 351.663 173.812 349 173.812C346.337 173.812 344.188 171.663 344.188 169C344.188 166.337 346.337 164.188 349 164.188ZM347.25 166.375V171.625H348.125V169.875H349.615L350.312 171.625H351.188L350.449 169.766C351.133 169.528 351.625 168.891 351.625 168.125C351.625 167.158 350.842 166.375 349.875 166.375H347.25ZM348.125 167.25H349.875C350.396 167.25 350.75 167.604 350.75 168.125C350.75 168.646 350.396 169 349.875 169H348.125V167.25Z" fill="white"/>
<defs>
<linearGradient id="paint0_linear_230_1028" x1="303" y1="177" x2="345.092" y2="184.738" gradientUnits="userSpaceOnUse">
<stop stop-color="#439DFE"/>
<stop offset="1" stop-color="#F687FF"/>
</linearGradient>
</defs>
</svg>
