<svg width="15" height="15" viewBox="0 0 15 15" fill="none" xmlns="http://www.w3.org/2000/svg">
<g clip-path="url(#clip0_233_884)">
<path d="M7.93164 13.888C7.93164 13.888 13.1816 10.388 13.1816 6.30469C13.1816 4.9123 12.6285 3.57694 11.644 2.59238C10.6594 1.60781 9.32403 1.05469 7.93164 1.05469C6.53925 1.05469 5.2039 1.60781 4.21933 2.59238C3.23476 3.57694 2.68164 4.9123 2.68164 6.30469C2.68164 10.388 7.93164 13.888 7.93164 13.888Z" stroke="white" stroke-linecap="round" stroke-linejoin="round"/>
<path d="M7.93164 8.05469C8.89814 8.05469 9.68164 7.27119 9.68164 6.30469C9.68164 5.33819 8.89814 4.55469 7.93164 4.55469C6.96514 4.55469 6.18164 5.33819 6.18164 6.30469C6.18164 7.27119 6.96514 8.05469 7.93164 8.05469Z" stroke="white" stroke-linecap="round" stroke-linejoin="round"/>
</g>
<defs>
<clipPath id="clip0_233_884">
<rect width="14" height="14" fill="white" transform="translate(0.931641 0.471191)"/>
</clipPath>
</defs>
</svg>
